<svg width="170" height="92" viewBox="0 0 170 92" fill="none" xmlns="http://www.w3.org/2000/svg">
<rect x="0.5" y="0.5" width="169" height="91" rx="3.5" stroke="#AFB1B8"/>
<path d="M56.1462 37.1028H56.1433C53.7453 37.1028 51.8013 38.8304 51.8013 40.9615V40.964C51.8013 43.0951 53.7453 44.8227 56.1433 44.8227H56.1462C58.5442 44.8227 60.4882 43.0951 60.4882 40.964V40.9615C60.4882 38.8304 58.5442 37.1028 56.1462 37.1028Z" fill="#AFB1B8"/>
<path d="M88.195 35.8693C88.1882 32.9093 86.8623 30.0722 84.5074 27.979C82.1525 25.8857 78.9605 24.7067 75.6298 24.7V24.7C72.2981 24.7053 69.1045 25.8837 66.7484 27.9772C64.3923 30.0706 63.0656 32.9084 63.0587 35.8693V52.1921C63.0587 52.1921 88.1922 49.7044 88.195 35.8718V35.8693Z" fill="#AFB1B8"/>
<path d="M43 57.5495C43.0061 59.6091 43.9292 61.5828 45.5676 63.0394C47.2061 64.496 49.4267 65.317 51.7442 65.3231C54.0612 65.317 56.2814 64.4963 57.9198 63.0403C59.5581 61.5843 60.4816 59.6112 60.4884 57.552V46.1943C60.4884 46.1943 43 47.9266 43 57.5495ZM51.7442 59.5844C51.2913 59.5844 50.8486 59.4651 50.4721 59.2415C50.0955 59.0179 49.802 58.7001 49.6287 58.3282C49.4554 57.9564 49.41 57.5472 49.4984 57.1525C49.5867 56.7577 49.8048 56.3951 50.1251 56.1105C50.4453 55.8259 50.8533 55.6321 51.2975 55.5536C51.7417 55.4751 52.2021 55.5154 52.6205 55.6694C53.0389 55.8234 53.3965 56.0843 53.6481 56.4189C53.8997 56.7535 54.034 57.147 54.034 57.5495C54.0351 57.8173 53.9767 58.0828 53.8622 58.3306C53.7476 58.5783 53.5791 58.8036 53.3664 58.9933C53.1536 59.1831 52.9008 59.3337 52.6225 59.4364C52.3441 59.5392 52.0456 59.5921 51.7442 59.5921V59.5844Z" fill="#AFB1B8"/>
<path d="M67.7302 55.9412V60.2068H66.8513V55.9412H67.7302ZM69.4294 57.7634V58.449H67.49V57.7634H69.4294ZM69.6345 55.9412V56.6296H67.49V55.9412H69.6345ZM73.6482 57.9744V58.1765C73.6482 58.5007 73.6042 58.7917 73.5163 59.0496C73.4284 59.3074 73.3044 59.5271 73.1443 59.7087C72.9841 59.8884 72.7927 60.0261 72.57 60.1218C72.3493 60.2175 72.1042 60.2654 71.8347 60.2654C71.5671 60.2654 71.322 60.2175 71.0993 60.1218C70.8786 60.0261 70.6872 59.8884 70.5251 59.7087C70.363 59.5271 70.237 59.3074 70.1472 59.0496C70.0593 58.7917 70.0154 58.5007 70.0154 58.1765V57.9744C70.0154 57.6482 70.0593 57.3572 70.1472 57.1013C70.2351 56.8435 70.3591 56.6238 70.5193 56.4421C70.6814 56.2605 70.8728 56.1218 71.0935 56.0261C71.3161 55.9304 71.5612 55.8826 71.8288 55.8826C72.0984 55.8826 72.3435 55.9304 72.5642 56.0261C72.7868 56.1218 72.9782 56.2605 73.1384 56.4421C73.3005 56.6238 73.4255 56.8435 73.5134 57.1013C73.6032 57.3572 73.6482 57.6482 73.6482 57.9744ZM72.7605 58.1765V57.9685C72.7605 57.7419 72.74 57.5427 72.6989 57.3708C72.6579 57.199 72.5974 57.0544 72.5173 56.9373C72.4372 56.8201 72.3396 56.7322 72.2243 56.6736C72.1091 56.613 71.9773 56.5828 71.8288 56.5828C71.6804 56.5828 71.5486 56.613 71.4333 56.6736C71.32 56.7322 71.2234 56.8201 71.1433 56.9373C71.0652 57.0544 71.0056 57.199 70.9646 57.3708C70.9236 57.5427 70.903 57.7419 70.903 57.9685V58.1765C70.903 58.4011 70.9236 58.6003 70.9646 58.7742C71.0056 58.946 71.0661 59.0916 71.1462 59.2107C71.2263 59.3279 71.3239 59.4167 71.4392 59.4773C71.5544 59.5378 71.6862 59.5681 71.8347 59.5681C71.9831 59.5681 72.115 59.5378 72.2302 59.4773C72.3454 59.4167 72.4421 59.3279 72.5202 59.2107C72.5984 59.0916 72.6579 58.946 72.6989 58.7742C72.74 58.6003 72.7605 58.4011 72.7605 58.1765ZM76.5017 59.0906C76.5017 59.0144 76.49 58.946 76.4665 58.8855C76.445 58.823 76.404 58.7664 76.3435 58.7156C76.2829 58.6628 76.198 58.6111 76.0886 58.5603C75.9792 58.5095 75.8376 58.4568 75.6638 58.4021C75.4704 58.3396 75.2868 58.2693 75.113 58.1912C74.9411 58.113 74.7888 58.0222 74.656 57.9187C74.5251 57.8132 74.4216 57.6912 74.3454 57.5525C74.2712 57.4138 74.2341 57.2527 74.2341 57.0691C74.2341 56.8914 74.2732 56.7302 74.3513 56.5857C74.4294 56.4392 74.5388 56.3142 74.6794 56.2107C74.82 56.1052 74.9861 56.0242 75.1775 55.9675C75.3708 55.9109 75.5827 55.8826 75.8132 55.8826C76.1277 55.8826 76.4021 55.9392 76.6364 56.0525C76.8708 56.1658 77.0525 56.321 77.1814 56.5183C77.3122 56.7156 77.3777 56.9412 77.3777 57.1951H76.5046C76.5046 57.0701 76.4782 56.9607 76.4255 56.8669C76.3747 56.7712 76.2966 56.696 76.1911 56.6414C76.0876 56.5867 75.9568 56.5593 75.7986 56.5593C75.6462 56.5593 75.5193 56.5828 75.4177 56.6296C75.3161 56.6746 75.24 56.7361 75.1892 56.8142C75.1384 56.8904 75.113 56.9763 75.113 57.072C75.113 57.1443 75.1306 57.2097 75.1657 57.2683C75.2029 57.3269 75.2575 57.3816 75.3298 57.4324C75.4021 57.4832 75.4909 57.531 75.5964 57.5759C75.7019 57.6208 75.8239 57.6648 75.9626 57.7078C76.195 57.7781 76.3991 57.8572 76.5749 57.9451C76.7527 58.033 76.9011 58.1316 77.0202 58.241C77.1394 58.3503 77.2292 58.4744 77.2898 58.613C77.3503 58.7517 77.3806 58.9089 77.3806 59.0847C77.3806 59.2703 77.3445 59.4363 77.2722 59.5828C77.1999 59.7292 77.0954 59.8533 76.9587 59.9548C76.822 60.0564 76.6589 60.1335 76.4695 60.1863C76.28 60.239 76.0681 60.2654 75.8337 60.2654C75.6228 60.2654 75.4148 60.238 75.2097 60.1833C75.0046 60.1267 74.8181 60.0417 74.6501 59.9285C74.4841 59.8152 74.3513 59.6707 74.2517 59.4949C74.1521 59.3191 74.1023 59.1111 74.1023 58.8708H74.9841C74.9841 59.0037 75.0046 59.116 75.0456 59.2078C75.0866 59.2996 75.1443 59.3738 75.2185 59.4304C75.2946 59.4871 75.3845 59.5281 75.488 59.5535C75.5935 59.5789 75.7087 59.5916 75.8337 59.5916C75.9861 59.5916 76.1111 59.5701 76.2087 59.5271C76.3083 59.4841 76.3816 59.4246 76.4284 59.3484C76.4773 59.2722 76.5017 59.1863 76.5017 59.0906ZM79.8855 55.9412V60.2068H79.0095V55.9412H79.8855ZM81.198 55.9412V56.6296H77.7175V55.9412H81.198ZM84.5612 59.5212V60.2068H82.2907V59.5212H84.5612ZM82.5779 55.9412V60.2068H81.6989V55.9412H82.5779ZM84.2654 57.6785V58.3464H82.2907V57.6785H84.2654ZM84.5583 55.9412V56.6296H82.2907V55.9412H84.5583ZM85.0739 55.9412H86.6648C86.9909 55.9412 87.2712 55.99 87.5056 56.0876C87.7419 56.1853 87.9236 56.3298 88.0505 56.5212C88.1775 56.7126 88.2409 56.948 88.2409 57.2273C88.2409 57.4558 88.2019 57.6521 88.1237 57.8162C88.0476 57.9783 87.9392 58.114 87.7986 58.2234C87.6599 58.3308 87.4968 58.4167 87.3093 58.4812L87.031 58.6277H85.6482L85.6423 57.9421H86.6706C86.8249 57.9421 86.9529 57.9148 87.0544 57.8601C87.156 57.8054 87.2321 57.7292 87.2829 57.6316C87.3357 57.5339 87.362 57.4207 87.362 57.2917C87.362 57.155 87.3366 57.0369 87.2859 56.9373C87.2351 56.8376 87.1579 56.7615 87.0544 56.7087C86.9509 56.656 86.821 56.6296 86.6648 56.6296H85.9529V60.2068H85.0739V55.9412ZM87.4587 60.2068L86.4861 58.3054L87.4148 58.2996L88.3991 60.1658V60.2068H87.4587ZM92.073 58.6863H90.9861V58.0007H92.073C92.2409 58.0007 92.3777 57.9734 92.4831 57.9187C92.5886 57.8621 92.6657 57.7839 92.7146 57.6843C92.7634 57.5847 92.7878 57.4724 92.7878 57.3474C92.7878 57.2205 92.7634 57.1023 92.7146 56.9929C92.6657 56.8835 92.5886 56.7957 92.4831 56.7292C92.3777 56.6628 92.2409 56.6296 92.073 56.6296H91.2907V60.2068H90.4118V55.9412H92.073C92.407 55.9412 92.6931 56.0017 92.9314 56.1228C93.1716 56.2419 93.3552 56.407 93.4821 56.6179C93.6091 56.8289 93.6726 57.0701 93.6726 57.3416C93.6726 57.6169 93.6091 57.8552 93.4821 58.0564C93.3552 58.2576 93.1716 58.4128 92.9314 58.5222C92.6931 58.6316 92.407 58.6863 92.073 58.6863ZM97.1413 59.5212V60.2068H94.8708V59.5212H97.1413ZM95.1579 55.9412V60.2068H94.279V55.9412H95.1579ZM96.8454 57.6785V58.3464H94.8708V57.6785H96.8454ZM97.1384 55.9412V56.6296H94.8708V55.9412H97.1384ZM99.6198 55.9412V60.2068H98.7439V55.9412H99.6198ZM100.932 55.9412V56.6296H97.4519V55.9412H100.932ZM104.296 59.5212V60.2068H102.025V59.5212H104.296ZM102.312 55.9412V60.2068H101.433V55.9412H102.312ZM104 57.6785V58.3464H102.025V57.6785H104ZM104.293 55.9412V56.6296H102.025V55.9412H104.293ZM104.808 55.9412H106.399C106.725 55.9412 107.006 55.99 107.24 56.0876C107.476 56.1853 107.658 56.3298 107.785 56.5212C107.912 56.7126 107.975 56.948 107.975 57.2273C107.975 57.4558 107.936 57.6521 107.858 57.8162C107.782 57.9783 107.674 58.114 107.533 58.2234C107.394 58.3308 107.231 58.4167 107.044 58.4812L106.765 58.6277H105.383L105.377 57.9421H106.405C106.559 57.9421 106.687 57.9148 106.789 57.8601C106.89 57.8054 106.967 57.7292 107.017 57.6316C107.07 57.5339 107.096 57.4207 107.096 57.2917C107.096 57.155 107.071 57.0369 107.02 56.9373C106.969 56.8376 106.892 56.7615 106.789 56.7087C106.685 56.656 106.555 56.6296 106.399 56.6296H105.687V60.2068H104.808V55.9412ZM107.193 60.2068L106.22 58.3054L107.149 58.2996L108.134 60.1658V60.2068H107.193ZM110.873 59.0906C110.873 59.0144 110.861 58.946 110.838 58.8855C110.816 58.823 110.775 58.7664 110.715 58.7156C110.654 58.6628 110.569 58.6111 110.46 58.5603C110.35 58.5095 110.209 58.4568 110.035 58.4021C109.842 58.3396 109.658 58.2693 109.484 58.1912C109.312 58.113 109.16 58.0222 109.027 57.9187C108.896 57.8132 108.793 57.6912 108.717 57.5525C108.642 57.4138 108.605 57.2527 108.605 57.0691C108.605 56.8914 108.644 56.7302 108.722 56.5857C108.801 56.4392 108.91 56.3142 109.051 56.2107C109.191 56.1052 109.357 56.0242 109.549 55.9675C109.742 55.9109 109.954 55.8826 110.184 55.8826C110.499 55.8826 110.773 55.9392 111.008 56.0525C111.242 56.1658 111.424 56.321 111.552 56.5183C111.683 56.7156 111.749 56.9412 111.749 57.1951H110.876C110.876 57.0701 110.849 56.9607 110.797 56.8669C110.746 56.7712 110.668 56.696 110.562 56.6414C110.459 56.5867 110.328 56.5593 110.17 56.5593C110.017 56.5593 109.89 56.5828 109.789 56.6296C109.687 56.6746 109.611 56.7361 109.56 56.8142C109.509 56.8904 109.484 56.9763 109.484 57.072C109.484 57.1443 109.502 57.2097 109.537 57.2683C109.574 57.3269 109.629 57.3816 109.701 57.4324C109.773 57.4832 109.862 57.531 109.967 57.5759C110.073 57.6208 110.195 57.6648 110.334 57.7078C110.566 57.7781 110.77 57.8572 110.946 57.9451C111.124 58.033 111.272 58.1316 111.391 58.241C111.51 58.3503 111.6 58.4744 111.661 58.613C111.721 58.7517 111.752 58.9089 111.752 59.0847C111.752 59.2703 111.716 59.4363 111.643 59.5828C111.571 59.7292 111.467 59.8533 111.33 59.9548C111.193 60.0564 111.03 60.1335 110.841 60.1863C110.651 60.239 110.439 60.2654 110.205 60.2654C109.994 60.2654 109.786 60.238 109.581 60.1833C109.376 60.1267 109.189 60.0417 109.021 59.9285C108.855 59.8152 108.722 59.6707 108.623 59.4949C108.523 59.3191 108.473 59.1111 108.473 58.8708H109.355C109.355 59.0037 109.376 59.116 109.417 59.2078C109.458 59.2996 109.515 59.3738 109.59 59.4304C109.666 59.4871 109.756 59.5281 109.859 59.5535C109.965 59.5789 110.08 59.5916 110.205 59.5916C110.357 59.5916 110.482 59.5701 110.58 59.5271C110.679 59.4841 110.753 59.4246 110.8 59.3484C110.848 59.2722 110.873 59.1863 110.873 59.0906Z" fill="#AFB1B8"/>
</svg>
